<svg version="1.2" baseProfile="tiny-ps" xmlns="http://www.w3.org/2000/svg" viewBox="0 0 1000 108" width="1000" height="108">
	<title>New Project</title>
	<style>
		tspan { white-space:pre }
		.shp0 { fill: #ffffff } 
	</style>
	<path id="Toksan Wiki" fill-rule="evenodd" class="shp0" d="M109.85 29.2L93.5 29.2L93.5 2.8L109.85 2.8L109.85 29.2ZM76.1 106L42.95 106L42.95 29.2L9.05 29.2L9.05 2.8L76.1 2.8L76.1 106ZM153.65 25C180.65 25 198.35 38.65 198.35 66.4C198.35 94.15 180.65 107.8 153.65 107.8C151.49 107.8 149.39 107.71 147.35 107.54L147.35 86.57C149.13 87.21 151.22 87.55 153.65 87.55C164.15 87.55 168.5 81.25 168.5 70.75L168.5 62.2C168.5 51.7 164.15 45.25 153.65 45.25C151.22 45.25 149.13 45.6 147.35 46.26L147.35 25.26C149.39 25.09 151.49 25 153.65 25L153.65 25ZM109.1 66.4C109.1 44.08 120.45 30.88 138.95 26.57L138.95 106.23C120.45 101.92 109.1 88.72 109.1 66.4ZM267.95 26.8L302.75 26.8L273.5 58.75L303.5 106L269.6 106L251 75.55L251 47.05L267.95 26.8ZM212.75 106L212.75 -2.9L242.6 -2.9L242.6 106L212.75 106ZM388.4 50.5L360.65 50.5C360.65 47.35 359 45.4 356.75 44.35C354.65 43.15 352.1 42.85 350 42.85L347.6 42.85L347.6 25L350.45 25C369.2 25 388.4 31.75 388.4 50.5ZM339.2 47.95C339.2 59.35 390.35 47.5 390.35 79.75C390.35 97.15 378.05 104.65 361.85 107.05L361.85 84.1C361.85 72.25 310.7 83.05 310.7 51.85C310.7 34.9 323.3 27.7 339.2 25.6L339.2 47.95ZM349.4 107.8C329.6 107.8 308.6 100 308.6 80.2L336.35 80.2L336.35 80.8C336.5 88.45 345.05 89.95 349.4 89.95C350.6 89.95 351.95 89.95 353.45 89.8L353.45 107.65C352.1 107.8 350.75 107.8 349.4 107.8ZM454.55 71.5C437 71.5 429.8 75.85 429.8 81.7C429.8 87.85 434.9 89.2 440 89.2C442.1 89.2 444.2 88.9 446.15 88.15L446.15 104.5C441.2 106.45 435.2 107.8 427.85 107.8C411.35 107.8 399.95 102.1 399.95 85.6C399.95 61.9 420.05 57.4 454.7 57.4L454.7 53.5C454.7 47.05 449.6 44.05 443.15 44.05C437.9 44.05 431.75 45.7 431.75 50.95L431.75 51.55L402.35 51.55C402.2 50.8 402.2 50.2 402.2 49.45C402.2 34.9 416.45 25 443.6 25C465.35 25 484.55 31.3 484.55 50.8L484.55 81.7C484.55 85 486.05 87.55 489.35 87.55L494.75 87.55L494.75 104.8C494.75 104.8 489.2 107.8 479.15 107.8C467.15 107.8 459.8 103.9 457.1 97.9C454.92 93.92 454.78 84.45 454.78 78.01C454.78 77.01 454.78 76.08 454.78 75.25C454.78 72.98 454.75 71.5 454.55 71.5L454.55 71.5ZM559.1 25C577.85 25 586.7 35.95 586.7 54.7L586.7 106L556.85 106L556.85 58.3C556.85 51.7 553.4 47.05 546.8 47.05C545.3 47.05 543.95 47.2 542.75 47.65L542.75 28.9C547.7 26.5 553.4 25 559.1 25ZM534.35 59.2L534.35 106L504.5 106L504.5 26.8L528.95 26.8L530.9 38.8L534.35 59.2ZM701.75 106L670.4 106L646.25 2.8L680.75 2.8L692.6 61.3L701.75 106ZM737.6 2.8L750.05 61.3L759.65 106L734.15 106L704.9 2.8L737.6 2.8ZM774.05 91.6L761.75 2.8L794.75 2.8L774.05 91.6ZM840.35 106L810.5 106L810.5 26.8L840.35 26.8L840.35 106ZM840.35 17.5L810.5 17.5L810.5 -2.75L840.35 -2.75L840.35 17.5ZM914.6 26.8L949.4 26.8L920.15 58.75L950.15 106L916.25 106L897.65 75.55L897.65 47.05L914.6 26.8ZM859.4 106L859.4 -2.9L889.25 -2.9L889.25 106L859.4 106ZM990.35 106L960.5 106L960.5 26.8L990.35 26.8L990.35 106ZM990.35 17.5L960.5 17.5L960.5 -2.75L990.35 -2.75L990.35 17.5Z" />
</svg>